<svg xmlns="http://www.w3.org/2000/svg" viewBox="84 78 248 198" fill="#fff"><circle cx="97" cy="90" r="8.5"/><circle cx="145" cy="90" r="8.5"/><circle cx="174" cy="90" r="8.5"/><circle cx="203" cy="90" r="8.5"/><circle cx="232" cy="90" r="8.5"/><circle cx="145" cy="119" r="8.5"/><circle cx="174" cy="119" r="8.5"/><circle cx="203" cy="119" r="8.5"/><circle cx="232" cy="119" r="8.5"/><circle cx="261" cy="119" r="8.5"/><circle cx="174" cy="148" r="8.5"/><circle cx="203" cy="148" r="8.5"/><circle cx="232" cy="148" r="8.5"/><circle cx="261" cy="148" r="8.5"/><circle cx="290" cy="148" r="8.5"/><circle cx="203" cy="177" r="8.5"/><circle cx="232" cy="177" r="8.5"/><circle cx="261" cy="177" r="8.5"/><circle cx="290" cy="177" r="8.5"/><circle cx="319" cy="177" r="8.5"/><circle cx="174" cy="206" r="8.5"/><circle cx="203" cy="206" r="8.5"/><circle cx="232" cy="206" r="8.5"/><circle cx="261" cy="206" r="8.5"/><circle cx="290" cy="206" r="8.5"/><circle cx="145" cy="235" r="8.5"/><circle cx="174" cy="235" r="8.5"/><circle cx="203" cy="235" r="8.5"/><circle cx="232" cy="235" r="8.5"/><circle cx="261" cy="235" r="8.5"/><circle cx="116" cy="264" r="8.5"/><circle cx="145" cy="264" r="8.5"/><circle cx="174" cy="264" r="8.5"/><circle cx="203" cy="264" r="8.5"/><circle cx="232" cy="264" r="8.5"/></svg>